<mxfile host="65bd71144e">
    <diagram id="3lI85uziel-fmolmMPwA" name="Page-1">
        <mxGraphModel dx="846" dy="602" grid="1" gridSize="10" guides="1" tooltips="1" connect="1" arrows="1" fold="1" page="0" pageScale="1" pageWidth="827" pageHeight="1169" math="0" shadow="0">
            <root>
                <mxCell id="0"/>
                <mxCell id="1" parent="0"/>
                <mxCell id="8" style="edgeStyle=none;html=1;endArrow=none;endFill=0;startSize=10;endSize=10;" parent="1" source="2" target="7" edge="1">
                    <mxGeometry relative="1" as="geometry"/>
                </mxCell>
                <mxCell id="10" style="edgeStyle=none;html=1;endArrow=none;endFill=0;startSize=10;endSize=10;" parent="1" source="2" target="9" edge="1">
                    <mxGeometry relative="1" as="geometry"/>
                </mxCell>
                <mxCell id="12" style="edgeStyle=none;html=1;endArrow=none;endFill=0;startSize=10;endSize=10;" parent="1" source="2" target="11" edge="1">
                    <mxGeometry relative="1" as="geometry"/>
                </mxCell>
                <mxCell id="14" style="edgeStyle=none;html=1;endArrow=none;endFill=0;startSize=10;endSize=10;" parent="1" source="2" target="13" edge="1">
                    <mxGeometry relative="1" as="geometry"/>
                </mxCell>
                <mxCell id="2" value="карточка" style="whiteSpace=wrap;html=1;align=center;" parent="1" vertex="1">
                    <mxGeometry x="320" y="150" width="120" height="50" as="geometry"/>
                </mxCell>
                <mxCell id="37" style="edgeStyle=none;html=1;endArrow=none;endFill=0;startSize=10;endSize=10;" parent="1" source="3" target="36" edge="1">
                    <mxGeometry relative="1" as="geometry"/>
                </mxCell>
                <mxCell id="3" value="модуль" style="whiteSpace=wrap;html=1;align=center;" parent="1" vertex="1">
                    <mxGeometry x="320" y="330" width="120" height="50" as="geometry"/>
                </mxCell>
                <mxCell id="5" style="edgeStyle=none;html=1;endArrow=ERoneToMany;endFill=0;endSize=10;startSize=10;" parent="1" source="4" target="2" edge="1">
                    <mxGeometry relative="1" as="geometry"/>
                </mxCell>
                <mxCell id="6" style="edgeStyle=none;html=1;endArrow=ERone;endFill=0;startSize=10;endSize=10;" parent="1" source="4" target="3" edge="1">
                    <mxGeometry relative="1" as="geometry"/>
                </mxCell>
                <mxCell id="4" value="содержит" style="shape=rhombus;perimeter=rhombusPerimeter;whiteSpace=wrap;html=1;align=center;" parent="1" vertex="1">
                    <mxGeometry x="320" y="240" width="120" height="50" as="geometry"/>
                </mxCell>
                <mxCell id="7" value="иероглиф" style="ellipse;whiteSpace=wrap;html=1;align=center;" parent="1" vertex="1">
                    <mxGeometry x="200" y="110" width="100" height="40" as="geometry"/>
                </mxCell>
                <mxCell id="9" value="чтение" style="ellipse;whiteSpace=wrap;html=1;align=center;" parent="1" vertex="1">
                    <mxGeometry x="250" y="50" width="100" height="40" as="geometry"/>
                </mxCell>
                <mxCell id="11" value="перевод" style="ellipse;whiteSpace=wrap;html=1;align=center;" parent="1" vertex="1">
                    <mxGeometry x="350" y="30" width="100" height="40" as="geometry"/>
                </mxCell>
                <mxCell id="13" value="изображение" style="ellipse;whiteSpace=wrap;html=1;align=center;" parent="1" vertex="1">
                    <mxGeometry x="430" y="80" width="100" height="40" as="geometry"/>
                </mxCell>
                <mxCell id="15" value="коллекция" style="whiteSpace=wrap;html=1;align=center;" parent="1" vertex="1">
                    <mxGeometry x="320" y="510" width="120" height="50" as="geometry"/>
                </mxCell>
                <mxCell id="17" style="edgeStyle=none;html=1;endArrow=none;endFill=0;startSize=10;endSize=10;" parent="1" source="16" target="15" edge="1">
                    <mxGeometry relative="1" as="geometry"/>
                </mxCell>
                <mxCell id="18" style="edgeStyle=none;html=1;endArrow=ERmany;endFill=0;startSize=10;endSize=10;" parent="1" source="16" target="3" edge="1">
                    <mxGeometry relative="1" as="geometry"/>
                </mxCell>
                <mxCell id="16" value="состоит из" style="shape=rhombus;perimeter=rhombusPerimeter;whiteSpace=wrap;html=1;align=center;" parent="1" vertex="1">
                    <mxGeometry x="320" y="420" width="120" height="50" as="geometry"/>
                </mxCell>
                <mxCell id="33" style="edgeStyle=none;html=1;endArrow=none;endFill=0;startSize=10;endSize=10;" parent="1" source="19" target="32" edge="1">
                    <mxGeometry relative="1" as="geometry"/>
                </mxCell>
                <mxCell id="35" style="edgeStyle=none;html=1;endArrow=none;endFill=0;startSize=10;endSize=10;" parent="1" source="19" target="53" edge="1">
                    <mxGeometry relative="1" as="geometry">
                        <mxPoint x="780" y="175" as="targetPoint"/>
                    </mxGeometry>
                </mxCell>
                <mxCell id="54" style="edgeStyle=none;html=1;endArrow=none;endFill=0;" edge="1" parent="1" source="19" target="52">
                    <mxGeometry relative="1" as="geometry"/>
                </mxCell>
                <mxCell id="19" value="слепок изучения" style="whiteSpace=wrap;html=1;align=center;" parent="1" vertex="1">
                    <mxGeometry x="640" y="150" width="120" height="50" as="geometry"/>
                </mxCell>
                <mxCell id="21" style="edgeStyle=none;html=1;endArrow=ERone;endFill=0;endSize=10;startSize=10;" parent="1" source="20" target="2" edge="1">
                    <mxGeometry relative="1" as="geometry"/>
                </mxCell>
                <mxCell id="22" style="edgeStyle=none;html=1;endArrow=ERmany;endFill=0;startSize=10;endSize=10;" parent="1" target="19" edge="1">
                    <mxGeometry relative="1" as="geometry">
                        <mxPoint x="580" y="175" as="sourcePoint"/>
                    </mxGeometry>
                </mxCell>
                <mxCell id="20" value="относится к" style="shape=rhombus;perimeter=rhombusPerimeter;whiteSpace=wrap;html=1;align=center;" parent="1" vertex="1">
                    <mxGeometry x="480" y="150" width="120" height="50" as="geometry"/>
                </mxCell>
                <mxCell id="29" style="edgeStyle=none;html=1;endArrow=none;endFill=0;startSize=10;endSize=10;" parent="1" source="23" target="27" edge="1">
                    <mxGeometry relative="1" as="geometry"/>
                </mxCell>
                <mxCell id="30" style="edgeStyle=none;html=1;endArrow=none;endFill=0;startSize=10;endSize=10;" parent="1" source="23" target="28" edge="1">
                    <mxGeometry relative="1" as="geometry"/>
                </mxCell>
                <mxCell id="23" value="сессия" style="whiteSpace=wrap;html=1;align=center;" parent="1" vertex="1">
                    <mxGeometry x="640" y="330" width="120" height="50" as="geometry"/>
                </mxCell>
                <mxCell id="25" style="edgeStyle=none;html=1;endArrow=ERmany;endFill=0;startSize=10;endSize=10;" parent="1" source="24" target="19" edge="1">
                    <mxGeometry relative="1" as="geometry"/>
                </mxCell>
                <mxCell id="26" style="edgeStyle=none;html=1;endArrow=ERone;endFill=0;startSize=10;endSize=10;" parent="1" source="24" target="23" edge="1">
                    <mxGeometry relative="1" as="geometry"/>
                </mxCell>
                <mxCell id="24" value="содержит" style="shape=rhombus;perimeter=rhombusPerimeter;whiteSpace=wrap;html=1;align=center;" parent="1" vertex="1">
                    <mxGeometry x="640" y="240" width="120" height="50" as="geometry"/>
                </mxCell>
                <mxCell id="27" value="время начала" style="ellipse;whiteSpace=wrap;html=1;align=center;" parent="1" vertex="1">
                    <mxGeometry x="780" y="290" width="100" height="40" as="geometry"/>
                </mxCell>
                <mxCell id="28" value="время конца" style="ellipse;whiteSpace=wrap;html=1;align=center;" parent="1" vertex="1">
                    <mxGeometry x="790" y="350" width="100" height="40" as="geometry"/>
                </mxCell>
                <mxCell id="32" value="степень освоения написания" style="ellipse;whiteSpace=wrap;html=1;align=center;" parent="1" vertex="1">
                    <mxGeometry x="600" y="60" width="110" height="60" as="geometry"/>
                </mxCell>
                <mxCell id="36" value="название" style="ellipse;whiteSpace=wrap;html=1;align=center;" parent="1" vertex="1">
                    <mxGeometry x="200" y="290" width="100" height="40" as="geometry"/>
                </mxCell>
                <mxCell id="39" style="edgeStyle=none;html=1;endArrow=none;endFill=0;" parent="1" source="38" target="15" edge="1">
                    <mxGeometry relative="1" as="geometry"/>
                </mxCell>
                <mxCell id="38" value="название" style="ellipse;whiteSpace=wrap;html=1;align=center;" parent="1" vertex="1">
                    <mxGeometry x="200" y="480" width="100" height="40" as="geometry"/>
                </mxCell>
                <mxCell id="40" value="пользователь" style="whiteSpace=wrap;html=1;align=center;" parent="1" vertex="1">
                    <mxGeometry x="640" y="510" width="120" height="50" as="geometry"/>
                </mxCell>
                <mxCell id="42" style="edgeStyle=none;html=1;endArrow=ERone;endFill=0;endSize=10;startSize=10;" parent="1" target="40" edge="1">
                    <mxGeometry relative="1" as="geometry">
                        <mxPoint x="570" y="535" as="sourcePoint"/>
                    </mxGeometry>
                </mxCell>
                <mxCell id="43" style="edgeStyle=none;html=1;endArrow=ERmany;endFill=0;startSize=10;endSize=10;" parent="1" source="41" target="15" edge="1">
                    <mxGeometry relative="1" as="geometry"/>
                </mxCell>
                <mxCell id="41" value="создает" style="shape=rhombus;perimeter=rhombusPerimeter;whiteSpace=wrap;html=1;align=center;" parent="1" vertex="1">
                    <mxGeometry x="470" y="510" width="120" height="50" as="geometry"/>
                </mxCell>
                <mxCell id="45" style="edgeStyle=none;html=1;endArrow=none;endFill=0;startSize=10;endSize=10;" parent="1" source="44" target="40" edge="1">
                    <mxGeometry relative="1" as="geometry"/>
                </mxCell>
                <mxCell id="44" value="логин" style="ellipse;whiteSpace=wrap;html=1;align=center;" parent="1" vertex="1">
                    <mxGeometry x="790" y="530" width="100" height="40" as="geometry"/>
                </mxCell>
                <mxCell id="47" style="edgeStyle=none;html=1;endArrow=none;endFill=0;startSize=10;endSize=10;" parent="1" source="46" target="40" edge="1">
                    <mxGeometry relative="1" as="geometry"/>
                </mxCell>
                <mxCell id="46" value="пароль" style="ellipse;whiteSpace=wrap;html=1;align=center;" parent="1" vertex="1">
                    <mxGeometry x="780" y="460" width="100" height="40" as="geometry"/>
                </mxCell>
                <mxCell id="49" style="edgeStyle=none;html=1;endArrow=ERone;endFill=0;startSize=10;endSize=10;" parent="1" source="48" target="40" edge="1">
                    <mxGeometry relative="1" as="geometry"/>
                </mxCell>
                <mxCell id="50" style="edgeStyle=none;html=1;endArrow=ERmany;endFill=0;startSize=10;endSize=10;" parent="1" source="48" target="23" edge="1">
                    <mxGeometry relative="1" as="geometry"/>
                </mxCell>
                <mxCell id="48" value="порождает" style="shape=rhombus;perimeter=rhombusPerimeter;whiteSpace=wrap;html=1;align=center;" parent="1" vertex="1">
                    <mxGeometry x="640" y="420" width="120" height="50" as="geometry"/>
                </mxCell>
                <mxCell id="52" value="степень освоения чтения" style="ellipse;whiteSpace=wrap;html=1;align=center;" vertex="1" parent="1">
                    <mxGeometry x="730" y="50" width="110" height="60" as="geometry"/>
                </mxCell>
                <mxCell id="53" value="степень освоения перевода" style="ellipse;whiteSpace=wrap;html=1;align=center;" vertex="1" parent="1">
                    <mxGeometry x="800" y="130" width="110" height="60" as="geometry"/>
                </mxCell>
            </root>
        </mxGraphModel>
    </diagram>
</mxfile>